<?xml version="1.0" encoding="utf-8"?>
<!-- Svg Vector Icons : http://www.onlinewebfonts.com/icon -->
<!DOCTYPE svg PUBLIC "-//W3C//DTD SVG 1.1//EN" "http://www.w3.org/Graphics/SVG/1.1/DTD/svg11.dtd">
<svg version="1.1" xmlns="http://www.w3.org/2000/svg" xmlns:xlink="http://www.w3.org/1999/xlink" x="0px" y="0px" viewBox="0 0 256 256" enable-background="new 0 0 256 256" xml:space="preserve">
<metadata> Svg Vector Icons : http://www.onlinewebfonts.com/icon </metadata>
<g><g><g><path fill="#304f73" d="M120.1,10.3c-39.6,4.9-74.9,36-85,74.8c-2.8,10.7-3.2,17.8-2.4,36.3c1.4,29.3,2.9,40.5,7,51.9c4.4,12,10.2,18.1,21.7,22.7c10.7,4.2,14.1,8.2,19,22.2c1.7,4.9,3.7,10.1,4.4,11.7c3.6,7.3,12.7,12.5,25.9,14.6c11.4,1.9,21.2,2,32.8,0.3c14.4-2.1,24-7.4,27.8-15.5c0.8-1.6,2.7-6.7,4.2-11.1c3.8-11.2,5.9-14.5,11.1-18.2c1.6-1.1,5.2-3,8-4.1c6.8-2.8,9.3-4.3,12.7-7.7c9.1-9.1,13.7-25.5,15.3-53.9c1.5-28.6,1.5-33.1-0.2-42.6c-7.1-39-40-72.2-79.5-80.2C136,10.1,126.1,9.6,120.1,10.3z M95.6,127.1c2.7,0.5,6.3,1.6,7.9,2.4c5.7,2.6,7.4,5.5,8.2,13.6c1.1,11.8-1.7,20.7-8.8,27.4c-7,6.7-15.6,9.3-26.5,7.8c-5.2-0.7-12.2-2.9-16-5.1c-4.2-2.5-9-7.4-10.3-10.9c-3.6-9.7-1.8-21.8,4.2-27.8C62,126.9,79.4,123.8,95.6,127.1z M179.7,126.1c2.6,0.3,6.1,0.9,7.9,1.3c4.5,1.1,10.7,4.1,13.4,6.6c6.8,6,8.7,20.3,4,29.8c-2.6,5.3-8.7,9.9-16.9,12.6c-13.8,4.6-26.3,2.6-35-5.6c-7.1-6.7-10-15.7-9-27.4c0.8-8.3,2.5-11.2,8.2-13.7C159.4,126.4,169.8,125.1,179.7,126.1z M131.2,170.9c3.1,1.4,4.8,3.8,7.1,9.8c1.1,2.9,3.1,7.9,4.3,11c3.5,8.9,3.3,12-1,15.5c-1.8,1.4-2.2,1.5-5.7,1.5c-2.1,0-5.2-0.1-7-0.2c-1.8-0.1-4.8,0-6.7,0.2c-4,0.4-6.3-0.1-8.6-2.1c-4-3.4-3.9-5.5,1.1-18.5c4.7-12.3,5.2-13.4,7.5-15.5C124.9,169.9,127.9,169.4,131.2,170.9z"/></g></g></g>
</svg>